HIERARCHY
ROOT Hips
{
  OFFSET 0.000000 0.000000 0.000000
  CHANNELS 6 Xposition Yposition Zposition Xrotation Yrotation Zrotation
  JOINT Spine
  {
    OFFSET 1.388230 22.849755 -8.157144
    CHANNELS 3 Xrotation Yrotation Zrotation
    JOINT Chest
    {
      OFFSET 1.388230 22.849755 -8.157144
      CHANNELS 3 Xrotation Yrotation Zrotation
      JOINT Neck
      {
        OFFSET 0.386562 8.498444 -3.690407
        CHANNELS 3 Xrotation Yrotation Zrotation
        JOINT Head
        {
          OFFSET 0.662911 7.396516 -7.447500
          CHANNELS 3 Xrotation Yrotation Zrotation
          End Site
          {
            OFFSET 0.198873 2.218955 -2.234250
          }
        }
      }
      JOINT LeftShoulder
      {
        OFFSET 17.248308 -1.208605 -0.261267
        CHANNELS 3 Xrotation Yrotation Zrotation
        JOINT LeftArm
        {
          OFFSET 7.635523 -21.435821 1.774202
          CHANNELS 3 Xrotation Yrotation Zrotation
          JOINT LeftForeArm
          {
            OFFSET 7.643843 -21.327462 -9.147581
            CHANNELS 3 Xrotation Yrotation Zrotation
            JOINT LeftHand
            {
              OFFSET 0.473402 -5.275506 -2.178749
              CHANNELS 3 Xrotation Yrotation Zrotation
              End Site
              {
                OFFSET 0.142021 -1.582652 -0.653625
              }
            }
          }
        }
      }
      JOINT RightShoulder
      {
        OFFSET -17.248308 1.208605 0.261267
        CHANNELS 3 Xrotation Yrotation Zrotation
        JOINT RightArm
        {
          OFFSET -12.133127 -21.363330 5.693170
          CHANNELS 3 Xrotation Yrotation Zrotation
          JOINT RightForeArm
          {
            OFFSET -7.740244 -22.047532 -5.230031
            CHANNELS 3 Xrotation Yrotation Zrotation
            JOINT RightHand
            {
              OFFSET -0.480044 -5.557554 -1.525311
              CHANNELS 3 Xrotation Yrotation Zrotation
              End Site
              {
                OFFSET -0.144013 -1.667266 -0.457593
              }
            }
          }
        }
      }
    }
  }
  JOINT LeftUpLeg
  {
    OFFSET 11.699587 -0.675443 -0.599665
    CHANNELS 3 Xrotation Yrotation Zrotation
    JOINT LeftLeg
    {
      OFFSET -6.527727 -38.483662 1.737457
      CHANNELS 3 Xrotation Yrotation Zrotation
      JOINT LeftFoot
      {
        OFFSET 3.065902 -35.809878 12.679608
        CHANNELS 3 Xrotation Yrotation Zrotation
        End Site
        {
          OFFSET 0.919771 -10.742963 3.803882
        }
      }
    }
  }
  JOINT RightUpLeg
  {
    OFFSET -11.699587 0.675443 0.599665
    CHANNELS 3 Xrotation Yrotation Zrotation
    JOINT RightLeg
    {
      OFFSET -1.173808 -37.981520 -1.210152
      CHANNELS 3 Xrotation Yrotation Zrotation
      JOINT RightFoot
      {
        OFFSET -7.846448 -39.021816 7.691272
        CHANNELS 3 Xrotation Yrotation Zrotation
        End Site
        {
          OFFSET -2.353934 -11.706545 2.307382
        }
      }
    }
  }
}
MOTION
Frames: 21
Frame Time: 0.083333
0.000000 60.000000 0.000000 -0.754759 0.036580 -0.025527 -0.754759 0.036580 -0.025527 0.000000 0.000000 0.000000 0.496996 -0.067327 -0.023415 5.000000 0.000000 0.000000 -0.027464 0.034519 0.533513 0.681685 -0.102457 0.344506 0.000000 0.000000 0.000000 0.000000 0.000000 0.000000 2.507782 -1.334604 0.356902 3.202876 -0.291517 0.207146 0.000000 0.000000 0.000000 0.000000 0.000000 0.000000 -2.295424 0.499936 1.262340 -0.412969 0.393010 1.184662 0.000000 0.000000 0.000000 -4.839706 0.138123 -0.216140 -3.305358 0.856089 0.702019 0.000000 0.000000 0.000000
-0.257243 60.000000 -1.638203 -0.761052 0.042716 -0.010551 -0.761052 0.042716 -0.010551 0.000000 0.000000 0.000000 0.330991 -0.041861 -0.012676 5.000000 0.000000 0.000000 -0.138342 -0.008417 0.474633 0.660185 -0.088974 0.308823 0.000000 0.000000 0.000000 0.000000 0.000000 0.000000 2.144296 -1.137399 0.323476 2.762762 -0.250145 0.173815 0.000000 0.000000 0.000000 0.000000 0.000000 0.000000 -2.141339 0.472996 1.176666 -0.453032 0.357501 1.086920 0.000000 0.000000 0.000000 -4.334311 0.120443 -0.222932 -2.884310 0.754126 0.634023 0.000000 0.000000 0.000000
-0.710694 60.000000 -4.164375 -2.153119 0.140919 0.022356 -2.153119 0.140919 0.022356 0.000000 0.000000 0.000000 0.511469 -0.046830 -0.001937 5.000000 0.000000 0.000000 -0.664287 -0.125368 1.238925 1.776031 -0.222051 0.787708 0.000000 0.000000 0.000000 0.000000 0.000000 0.000000 5.053109 -2.673488 0.795579 6.485110 -0.577857 0.376815 0.000000 0.000000 0.000000 0.000000 0.000000 0.000000 -5.512243 1.243871 3.140330 -1.295122 0.887024 2.718312 0.000000 0.000000 0.000000 -10.718983 0.290189 -0.622340 -6.820129 1.817726 1.628172 0.000000 0.000000 0.000000
-1.080862 60.000000 -5.480810 -3.047343 0.251816 0.167268 -3.047343 0.251816 0.167268 0.000000 0.000000 0.000000 -0.033841 0.083497 0.079981 5.000000 0.000000 0.000000 -1.352121 -0.321845 1.687081 2.253127 -0.268097 0.961621 0.000000 0.000000 0.000000 0.000000 0.000000 0.000000 5.143857 -2.734845 0.741796 6.281295 -0.512472 0.209509 0.000000 0.000000 0.000000 0.000000 0.000000 0.000000 -6.393535 1.519719 4.192241 -1.611620 0.960720 2.969724 0.000000 0.000000 0.000000 -11.695641 0.304333 -0.795532 -6.526777 1.859617 2.046549 0.000000 0.000000 0.000000
-1.402397 60.000000 -5.917965 -3.256636 0.322216 0.312844 -3.256636 0.322216 0.312844 0.000000 0.000000 0.000000 0.237301 0.121570 0.142449 5.000000 0.000000 0.000000 -0.913195 -0.119048 2.272446 2.068388 -0.320672 1.054762 0.000000 0.000000 0.000000 0.000000 0.000000 0.000000 5.366424 -2.975434 0.164326 5.633533 -0.349858 -0.170476 0.000000 0.000000 0.000000 0.000000 0.000000 0.000000 -5.419806 1.376153 4.800359 -0.750591 0.838121 2.502202 0.000000 0.000000 0.000000 -10.614975 0.293684 -0.560376 -5.083530 1.624008 2.404411 0.000000 0.000000 0.000000
-1.822454 60.000000 -6.127072 -3.935158 0.445253 0.508331 -3.935158 0.445253 0.508331 0.000000 0.000000 0.000000 0.193994 0.210253 0.225652 5.000000 0.000000 0.000000 -0.537550 0.025771 2.487549 2.315889 -0.324508 1.094736 0.000000 0.000000 0.000000 0.000000 0.000000 0.000000 5.761070 -3.362716 -0.667989 6.000954 -0.268871 -0.531742 0.000000 0.000000 0.000000 0.000000 0.000000 0.000000 -4.973554 1.307590 5.089350 -0.434397 0.908290 2.644017 0.000000 0.000000 0.000000 -10.374373 0.296390 -0.412313 -4.926034 1.662431 2.703147 0.000000 0.000000 0.000000
-2.693350 60.000000 -5.835325 -4.811071 0.648139 0.861561 -4.811071 0.648139 0.861561 0.000000 0.000000 0.000000 -0.521543 0.472269 0.415397 5.000000 0.000000 0.000000 -1.081044 -0.164042 2.395819 3.732596 -0.455011 1.545849 0.000000 0.000000 0.000000 0.000000 0.000000 0.000000 5.687795 -3.483041 -1.495454 6.551958 -0.305984 -0.534023 0.000000 0.000000 0.000000 0.000000 0.000000 0.000000 -4.763362 1.267686 5.157784 -0.724578 0.847308 2.524825 0.000000 0.000000 0.000000 -10.517761 0.305501 -0.324628 -5.612714 1.841483 2.783853 0.000000 0.000000 0.000000
-3.798798 60.000000 -6.009728 -5.351215 0.824176 1.200104 -5.351215 0.824176 1.200104 0.000000 0.000000 0.000000 -1.305641 0.872406 0.731390 5.000000 0.000000 0.000000 -2.627009 -0.636445 2.562273 6.962271 -1.013414 3.055374 0.000000 0.000000 0.000000 0.000000 0.000000 0.000000 6.485791 -4.157904 -2.866611 8.082370 -0.469262 -0.349890 0.000000 0.000000 0.000000 0.000000 0.000000 0.000000 -4.374445 1.194607 5.306691 -1.525691 0.754267 2.402354 0.000000 0.000000 0.000000 -10.440084 0.301195 -0.361119 -6.508591 2.049675 2.782222 0.000000 0.000000 0.000000
-5.242286 60.000000 -7.419654 -5.112986 0.784519 1.147824 -5.112986 0.784519 1.147824 0.000000 0.000000 0.000000 -1.638144 0.963672 0.785627 5.000000 0.000000 0.000000 -5.237606 -1.043272 6.147242 10.670419 -2.323882 5.957138 0.000000 0.000000 0.000000 0.000000 0.000000 0.000000 9.469929 -5.744970 -3.148465 10.370767 -0.715829 -0.095139 0.000000 0.000000 0.000000 0.000000 0.000000 0.000000 -3.894635 1.134492 5.832257 -2.279273 0.745090 2.504480 0.000000 0.000000 0.000000 -9.916328 0.288425 -0.315505 -6.696643 2.116602 2.869313 0.000000 0.000000 0.000000
-7.132708 60.000000 -8.927111 -5.717868 0.717574 0.881226 -5.717868 0.717574 0.881226 0.000000 0.000000 0.000000 -1.825268 1.245076 1.035186 5.000000 0.000000 0.000000 -5.509200 -0.114598 16.069772 14.458912 -3.904265 9.050223 0.000000 0.000000 0.000000 0.000000 0.000000 0.000000 12.153124 -7.115215 -3.188574 10.937382 -0.877354 0.263568 0.000000 0.000000 0.000000 0.000000 0.000000 0.000000 -4.173973 1.224282 6.164026 -4.066485 0.604183 2.426637 0.000000 0.000000 0.000000 -9.447825 0.287321 -0.054821 -7.405525 2.282714 2.870009 0.000000 0.000000 0.000000
-9.223938 60.000000 -9.803641 -6.433929 0.515354 0.281114 -6.433929 0.515354 0.281114 0.000000 0.000000 0.000000 -2.173460 1.958638 1.677318 5.000000 0.000000 0.000000 -1.492384 2.081820 31.560754 17.673927 -5.216361 11.384807 0.000000 0.000000 0.000000 0.000000 0.000000 0.000000 11.078493 -6.628597 -3.631539 8.274462 -0.787329 0.603369 0.000000 0.000000 0.000000 0.000000 0.000000 0.000000 -4.182945 1.265577 6.624539 -3.811522 0.543620 2.231900 0.000000 0.000000 0.000000 -8.929688 0.297887 0.446658 -8.331455 2.460814 2.724935 0.000000 0.000000 0.000000
-10.495690 60.000000 -10.236750 -7.058883 0.328262 -0.260032 -7.058883 0.328262 -0.260032 0.000000 0.000000 0.000000 -2.745660 2.519544 2.142146 5.000000 0.000000 0.000000 1.680935 3.504780 46.879697 16.901554 -5.726555 12.393156 0.000000 0.000000 0.000000 0.000000 0.000000 0.000000 8.887490 -5.569139 -3.907657 6.766781 -0.718840 0.759375 0.000000 0.000000 0.000000 0.000000 0.000000 0.000000 -4.428119 1.311827 6.518150 -3.384143 0.581053 2.266224 0.000000 0.000000 0.000000 -9.560468 0.345203 1.016648 -8.643704 2.509530 2.634840 0.000000 0.000000 0.000000
-10.882674 60.000000 -10.698568 -6.553367 0.185550 -0.524908 -6.553367 0.185550 -0.524908 0.000000 0.000000 0.000000 -3.075559 2.704914 2.274591 5.000000 0.000000 0.000000 0.527143 4.381733 58.741645 13.211861 -5.265699 11.883799 0.000000 0.000000 0.000000 0.000000 0.000000 0.000000 8.325280 -5.390608 -4.563595 7.362798 -0.747792 0.698737 0.000000 0.000000 0.000000 0.000000 0.000000 0.000000 -3.408348 1.085213 6.689635 -0.295166 0.852712 2.502333 0.000000 0.000000 0.000000 -8.433861 0.334095 1.948563 -7.060107 2.106570 2.509409 0.000000 0.000000 0.000000
-10.757514 60.000000 -9.884128 -6.055984 0.051897 -0.773745 -6.055984 0.051897 -0.773745 0.000000 0.000000 0.000000 -4.067326 2.793870 2.234088 5.000000 0.000000 0.000000 -0.155826 5.053757 66.119911 7.829121 -4.639014 11.111424 0.000000 0.000000 0.000000 0.000000 0.000000 0.000000 8.256324 -5.535414 -5.686929 6.473401 -0.664487 0.659328 0.000000 0.000000 0.000000 0.000000 0.000000 0.000000 -0.753158 0.506046 7.210126 4.300963 1.292735 2.991049 0.000000 0.000000 0.000000 -6.107850 0.244458 2.727466 -4.320139 1.492892 2.577415 0.000000 0.000000 0.000000
-10.498120 60.000000 -7.102860 -5.600607 0.087834 -0.626051 -5.600607 0.087834 -0.626051 0.000000 0.000000 0.000000 -5.751887 2.543358 1.796355 5.000000 0.000000 0.000000 -0.396329 5.220306 67.491931 6.327829 -3.809231 9.367765 0.000000 0.000000 0.000000 0.000000 0.000000 0.000000 8.252471 -5.689276 -6.647194 4.926301 -0.537903 0.644837 0.000000 0.000000 0.000000 0.000000 0.000000 0.000000 -1.176355 0.620197 7.448180 5.469307 1.450316 3.295801 0.000000 0.000000 0.000000 -4.645471 0.169197 2.963000 -2.552190 1.101086 2.633555 0.000000 0.000000 0.000000
-10.272721 60.000000 -2.480336 -5.477046 0.215581 -0.297475 -5.477046 0.215581 -0.297475 0.000000 0.000000 0.000000 -7.322950 2.337627 1.427945 5.000000 0.000000 0.000000 -0.290677 4.976324 65.027198 6.051428 -2.912396 7.287536 0.000000 0.000000 0.000000 0.000000 0.000000 0.000000 7.719762 -5.573663 -7.500208 3.375806 -0.413870 0.637221 0.000000 0.000000 0.000000 0.000000 0.000000 0.000000 -3.451939 1.151794 7.338452 5.643999 1.474147 3.341824 0.000000 0.000000 0.000000 -4.954634 0.184410 2.781988 -2.750979 1.164163 2.713195 0.000000 0.000000 0.000000
-10.160626 60.000000 1.786070 -5.212796 0.439013 0.286985 -5.212796 0.439013 0.286985 0.000000 0.000000 0.000000 -8.968176 2.394835 1.280566 5.000000 0.000000 0.000000 -1.462827 4.930505 61.670762 4.806435 -2.376423 6.035271 0.000000 0.000000 0.000000 0.000000 0.000000 0.000000 7.562312 -5.460259 -7.264018 2.353559 -0.340198 0.658713 0.000000 0.000000 0.000000 0.000000 0.000000 0.000000 -4.306153 1.313128 6.873774 5.114186 1.550060 3.671805 0.000000 0.000000 0.000000 -5.467569 0.206376 2.472605 -2.579969 1.161790 2.877981 0.000000 0.000000 0.000000
-10.046391 60.000000 4.201604 -4.668210 0.721567 1.076466 -4.668210 0.721567 1.076466 0.000000 0.000000 0.000000 -11.015370 3.126498 1.643070 5.000000 0.000000 0.000000 -2.283837 4.653909 56.123003 4.518706 -1.540474 4.002690 0.000000 0.000000 0.000000 0.000000 0.000000 0.000000 7.027006 -4.854394 -5.405463 2.215436 -0.316623 0.610166 0.000000 0.000000 0.000000 0.000000 0.000000 0.000000 -4.800612 1.357550 6.059456 4.206747 1.680492 4.244252 0.000000 0.000000 0.000000 -6.612680 0.255633 2.018053 -2.289200 1.139740 3.081481 0.000000 0.000000 0.000000
-9.925055 60.000000 4.817961 -2.510726 0.717005 1.476873 -2.510726 0.717005 1.476873 0.000000 0.000000 0.000000 -12.090641 4.312436 2.488945 5.000000 0.000000 0.000000 -0.442033 3.777696 47.653831 2.114359 -0.266267 0.970126 0.000000 0.000000 0.000000 0.000000 0.000000 0.000000 4.607771 -2.978961 -2.456799 1.919140 -0.263965 0.495155 0.000000 0.000000 0.000000 0.000000 0.000000 0.000000 -4.427693 1.259829 5.902577 4.933052 1.706616 4.225293 0.000000 0.000000 0.000000 -7.547410 0.293545 1.742332 -1.393003 0.954825 3.193410 0.000000 0.000000 0.000000
-9.884510 60.000000 4.341240 2.130079 0.416736 1.620498 2.130079 0.416736 1.620498 0.000000 0.000000 0.000000 -10.123724 4.990718 3.316984 5.000000 0.000000 0.000000 1.087003 2.346417 31.529312 3.830489 -0.013479 0.635162 0.000000 0.000000 0.000000 0.000000 0.000000 0.000000 0.326343 0.120318 1.080044 1.063342 -0.193465 0.471801 0.000000 0.000000 0.000000 0.000000 0.000000 0.000000 -3.345960 1.018817 5.922206 5.900202 1.679295 3.993755 0.000000 0.000000 0.000000 -6.828413 0.249684 1.369055 1.387921 0.351905 3.400593 0.000000 0.000000 0.000000
-10.008283 60.000000 3.026225 3.810363 0.244756 1.485036 3.810363 0.244756 1.485036 0.000000 0.000000 0.000000 -8.832828 5.580809 4.001981 5.000000 0.000000 0.000000 -0.921729 0.968083 15.145727 3.152183 -0.405908 1.393335 0.000000 0.000000 0.000000 0.000000 0.000000 0.000000 -0.195519 0.618526 1.748396 0.167725 -0.210319 0.796808 0.000000 0.000000 0.000000 0.000000 0.000000 0.000000 -2.448255 0.827483 6.068534 5.785564 1.502754 3.438931 0.000000 0.000000 0.000000 -6.195053 0.216667 1.138950 2.357241 0.141560 3.479649 0.000000 0.000000 0.000000
